<?xml version="1.0" encoding="UTF-8" standalone="no"?><!DOCTYPE svg PUBLIC "-//W3C//DTD SVG 1.1//EN" "http://www.w3.org/Graphics/SVG/1.1/DTD/svg11.dtd"><svg width="100%" height="100%" viewBox="0 0 168 60" version="1.1" xmlns="http://www.w3.org/2000/svg" xmlns:xlink="http://www.w3.org/1999/xlink" xml:space="preserve" xmlns:serif="http://www.serif.com/" style="fill-rule:evenodd;clip-rule:evenodd;stroke-linejoin:round;stroke-miterlimit:2;"><path d="M6.059,58.404l-0.021,-21.334c-0.004,-3.709 -0.193,-10.23 0.302,-13.607c0.409,-2.862 1.328,-5.628 2.715,-8.165c4.213,-7.793 12.924,-13.393 21.812,-13.687c1.809,-0.06 5.386,0.031 6.995,0.922c-1.431,-0.069 -2.438,-0.094 -3.803,0.427c-3.371,1.287 -5.028,4.755 -4.451,8.233c0.458,2.763 2.105,4.145 3.968,6.021c-0.328,0.051 -0.859,0.128 -1.175,0.146c-4.399,0.252 -8.064,2.692 -8.926,7.194c-0.342,1.787 -0.186,3.528 -0.226,5.347c-0.079,3.586 0.196,7.749 -0.17,11.27c-0.347,3.335 -2.083,7.68 -4.24,10.274c-3.442,4.141 -7.435,6.405 -12.782,6.958Z" style="fill:#ff5a5a;fill-rule:nonzero;"/><path d="M76.84,16.475c3.881,-0.312 7.474,1.627 9.966,4.478c4.905,5.612 4.468,14.29 -1.15,19.222c-2.51,2.249 -5.818,3.396 -9.181,3.185c-2.919,-0.192 -4.507,-1.121 -6.393,-3.246l-0.033,8.221l-0.04,5.921c-2.534,0.028 -5.069,0.042 -7.603,0.043l0.014,-37.42l7.374,0.026l0.034,3.158c0.134,-0.185 0.274,-0.365 0.421,-0.54c1.663,-1.948 4.101,-2.831 6.592,-3.048Zm-1.681,7.385c-3.382,0.658 -5.58,3.947 -4.894,7.324c0.685,3.377 3.991,5.548 7.362,4.835c3.333,-0.704 5.475,-3.965 4.797,-7.304c-0.678,-3.339 -3.921,-5.506 -7.265,-4.855Z"/><path d="M33.577,17.214c-1.864,-1.876 -3.51,-3.259 -3.968,-6.021c-0.577,-3.478 1.079,-6.945 4.451,-8.233c1.365,-0.521 2.371,-0.496 3.803,-0.427c3.542,0.784 6.11,4.174 8.62,6.696c1.725,1.706 3.428,3.435 5.107,5.187c1.134,1.17 2.253,2.15 3.143,3.536c1.366,2.116 1.945,4.786 1.378,7.26c-0.266,1.164 -0.731,2.377 -1.477,3.33c-0.442,0.564 -0.824,1.036 -1.336,1.549c-1.63,1.628 -3.269,3.248 -4.9,4.875l-4.295,4.313c-2.834,2.851 -4.956,5.327 -9.48,4.099c-3.991,-1.133 -5.811,-5.699 -4.619,-9.432c0.813,-2.546 3.876,-5.126 5.878,-6.942c4.5,-4.079 1.195,-6.339 -2.304,-9.79Z" style="fill:#ffa95a;fill-rule:nonzero;"/><path d="M112.505,16.636c7.376,-0.903 14.08,4.36 14.954,11.739c0.874,7.379 -4.416,14.063 -11.799,14.907c-7.341,0.839 -13.979,-4.414 -14.847,-11.752c-0.869,-7.337 4.358,-13.996 11.692,-14.894Zm0.545,7.226c-3.308,0.579 -5.537,3.708 -5.003,7.024c0.533,3.315 3.631,5.588 6.953,5.1c2.191,-0.321 4.039,-1.797 4.837,-3.862c0.798,-2.065 0.422,-4.4 -0.983,-6.111c-1.406,-1.711 -3.623,-2.532 -5.804,-2.151Z"/><path d="M130.067,8.385c2.352,-0.029 4.705,-0.045 7.057,-0.048c0.043,2.848 0.057,5.696 0.04,8.544c2.192,0.011 4.384,0.034 6.576,0.068c0.06,2.294 0.021,4.661 0.001,6.96c-2.112,0.081 -4.447,0.044 -6.575,0.053c-0.014,2.286 -0.041,4.594 -0.017,6.876c0.016,1.438 0.442,2.923 1.559,3.891c1.554,1.346 3.171,1.172 5.033,1.088l-0.017,4.447c-0.001,0.991 -0.01,1.982 -0.025,2.973l-1.133,0.009c-3.121,0.012 -5.574,-0.224 -8.158,-2.14c-5.525,-4.095 -4.566,-11.121 -4.557,-17.152c-1.15,-0.045 -2.438,-0.016 -3.599,-0.015c-0.01,-2.17 -0.086,-4.946 0.052,-7.069l3.52,0.012c0.057,-1.811 0.014,-3.599 0.02,-5.407c0.003,-0.884 -0.054,-2.11 0.047,-2.965l0.177,-0.124Z" style="fill-rule:nonzero;"/><path d="M92.224,5.98c2.324,-0.036 4.649,-0.056 6.973,-0.059l-0.011,27.067l0.003,6.406c0.004,0.812 0.064,3.231 -0.075,3.877l-0.226,0.086c-2.341,-0.035 -4.743,-0.016 -7.087,-0.022l0.018,-25.366l0.019,-7.617c-0,-0.757 -0.164,-3.753 0.109,-4.308l0.278,-0.065Z" style="fill-rule:nonzero;"/><path d="M160.872,16.586c0.293,-0.023 0.811,0.007 1.119,0.015c0.013,2.747 0.012,5.495 -0.004,8.243c-2.43,0.012 -4.567,0.502 -6.354,2.283c-0.917,0.916 -1.578,2.056 -1.916,3.308c-0.381,1.422 -0.293,3.822 -0.297,5.359l0.008,7.58c-2.408,-0.038 -4.888,-0.015 -7.302,-0.019l0,-2.941c-0.049,-7.834 -0.052,-15.669 -0.008,-23.503c2.416,-0.043 4.909,-0.022 7.33,-0.028l0.014,4.407c1.763,-3.194 3.779,-4.419 7.409,-4.701Z" style="fill-rule:nonzero;"/></svg>